<?xml version="1.0" encoding="utf-8"?>
<!-- Generator: Adobe Illustrator 16.0.0, SVG Export Plug-In . SVG Version: 6.00 Build 0)  -->
<!DOCTYPE svg PUBLIC "-//W3C//DTD SVG 1.1//EN" "http://www.w3.org/Graphics/SVG/1.1/DTD/svg11.dtd">
<svg version="1.1" id="Layer_1" xmlns="http://www.w3.org/2000/svg" xmlns:xlink="http://www.w3.org/1999/xlink" x="0px" y="0px"
	 width="128px" height="128px" viewBox="64.5 856.5 128 128" enable-background="new 64.5 856.5 128 128" xml:space="preserve">
<g>
	<g>
		<g>
			<path fill="#99995C" d="M1226.45,550.5c35.215,0,63.75-28.534,63.75-63.749c0-35.216-28.535-63.751-63.75-63.751
				s-63.749,28.535-63.749,63.75C1162.701,521.966,1191.235,550.5,1226.45,550.5z"/>
			<path fill="#99995C" d="M1140.388,678h172.125c3.672,0,7.14-1.582,9.563-4.31c2.423-2.754,3.544-6.401,3.085-10.021
				l-3.978-31.824c-3.979-31.849-31.161-55.845-63.241-55.845h-62.959c-32.078,0-59.288,23.996-63.24,55.845l-3.978,31.824
				c-0.459,3.62,0.662,7.268,3.084,10.021C1133.248,676.42,1136.716,678,1140.388,678z"/>
		</g>
	</g>
</g>
<g>
	<g>
		<g>
			<path fill="#E67373" d="M1380.713,550.5c35.215,0,63.75-28.534,63.75-63.749c0-35.216-28.535-63.751-63.75-63.751
				s-63.749,28.535-63.749,63.75C1316.964,521.966,1345.498,550.5,1380.713,550.5z"/>
			<path fill="#E67373" d="M1294.65,678h172.125c3.672,0,7.14-1.582,9.563-4.31c2.423-2.754,3.544-6.401,3.085-10.021l-3.978-31.824
				c-3.979-31.849-31.161-55.845-63.241-55.845h-62.959c-32.078,0-59.288,23.996-63.24,55.845l-3.978,31.824
				c-0.459,3.62,0.662,7.268,3.084,10.021C1287.511,676.42,1290.979,678,1294.65,678z"/>
		</g>
	</g>
</g>
<g>
	<g>
		<g>
			<path fill="#5C7EE6" d="M1534.976,550.5c35.215,0,63.75-28.534,63.75-63.749c0-35.216-28.535-63.751-63.75-63.751
				s-63.75,28.535-63.75,63.75C1471.226,521.966,1499.761,550.5,1534.976,550.5z"/>
			<path fill="#5C7EE6" d="M1448.913,678h172.125c3.672,0,7.14-1.582,9.563-4.31c2.423-2.754,3.544-6.401,3.085-10.021
				l-3.978-31.824c-3.979-31.849-31.161-55.845-63.241-55.845h-62.959c-32.079,0-59.288,23.996-63.24,55.845l-3.978,31.824
				c-0.459,3.62,0.662,7.268,3.084,10.021C1441.773,676.42,1445.241,678,1448.913,678z"/>
		</g>
	</g>
</g>
<path fill="#808080" d="M1454.601,379.109l-11.79,11.79L1437.71,396c-7.92-17.081-30.359-29.021-55.71-29.021
	c-25.22,0-47.68,11.92-55.649,28.92l-16.87-16.87c13.749-21.21,41.36-35.05,72.52-35.05
	C1413.3,343.979,1440.891,357.83,1454.601,379.109z"/>
<path fill="#808080" d="M1503.26,330.459l-17.199,17.19c-14.08-33.72-56.11-56.94-104.061-56.94c-48.15,0-89.93,23.11-104,56.84
	l-17.199-17.2c20.449-37.57,67.729-62.64,121.199-62.64C1435.23,267.709,1482.78,292.899,1503.26,330.459z"/>
<path fill="#808080" d="M1561.55,272.169l-16.659,16.65c-27.23-44.74-91.591-74.38-162.9-74.38c-71.311,0-135.55,29.58-162.82,74.28
	l-16.65-16.65c14.781-22.04,37.141-40.9,65.44-55.04c33.5-16.74,72.931-25.59,114.03-25.59c41.01,0,80.37,8.81,113.82,25.48
	C1524.25,231.1,1546.72,250.029,1561.55,272.169z"/>
<path fill="#808080" d="M1632.181,201.54l-16.54,16.53c-44.561-66.05-135.49-108.43-233.65-108.43
	c-98.35,0-188.95,42.28-233.57,108.33l-16.53-16.53c22.921-32.46,56.011-59.97,96.46-80.04c45.811-22.74,98.94-34.76,153.641-34.76
	c54.229,0,106.97,11.83,152.52,34.2C1575.48,140.969,1609.04,168.719,1632.181,201.54z"/>
<g>
	<g>
		<g>
			<g>
				<path fill="#99995C" d="M89.413,952.34c8.882,0,16.08-7.197,16.08-16.078c0-8.884-7.197-16.081-16.08-16.081
					s-16.08,7.197-16.08,16.08C73.333,945.143,80.531,952.34,89.413,952.34z"/>
				<path fill="#99995C" d="M67.706,984.5h43.415c0.926,0,1.801-0.398,2.412-1.087c0.611-0.695,0.894-1.615,0.778-2.528
					l-1.003-8.026c-1.003-8.034-7.86-14.086-15.952-14.086h-15.88c-8.091,0-14.954,6.052-15.951,14.086l-1.003,8.026
					c-0.116,0.913,0.167,1.833,0.778,2.528C65.904,984.102,66.779,984.5,67.706,984.5z"/>
			</g>
		</g>
	</g>
	<g>
		<g>
			<g>
				<path fill="#E67373" d="M128.323,952.34c8.881,0,16.079-7.197,16.079-16.078c0-8.884-7.198-16.081-16.079-16.081
					c-8.883,0-16.08,7.197-16.08,16.08C112.243,945.143,119.44,952.34,128.323,952.34z"/>
				<path fill="#E67373" d="M106.615,984.5h43.415c0.926,0,1.801-0.398,2.412-1.087c0.611-0.695,0.894-1.615,0.778-2.528
					l-1.004-8.026c-1.003-8.034-7.859-14.086-15.951-14.086h-15.88c-8.091,0-14.955,6.052-15.951,14.086l-1.003,8.026
					c-0.116,0.913,0.167,1.833,0.778,2.528C104.814,984.102,105.689,984.5,106.615,984.5z"/>
			</g>
		</g>
	</g>
	<g>
		<g>
			<g>
				<path fill="#5C7EE6" d="M167.232,952.34c8.882,0,16.08-7.197,16.08-16.078c0-8.884-7.197-16.081-16.08-16.081
					c-8.882,0-16.079,7.197-16.079,16.08C151.153,945.143,158.351,952.34,167.232,952.34z"/>
				<path fill="#5C7EE6" d="M145.525,984.5h43.416c0.926,0,1.8-0.398,2.412-1.087c0.61-0.695,0.894-1.615,0.778-2.528l-1.003-8.026
					c-1.003-8.034-7.859-14.086-15.952-14.086h-15.88c-8.091,0-14.954,6.052-15.951,14.086l-1.003,8.026
					c-0.116,0.913,0.167,1.833,0.778,2.528C143.725,984.102,144.599,984.5,145.525,984.5z"/>
			</g>
		</g>
	</g>
	<g>
		<path fill="#6B6B6B" d="M143.21,915.788l-2.391,2.39l-1.034,1.034c-1.605-3.462-6.154-5.883-11.293-5.883
			c-5.112,0-9.665,2.416-11.281,5.862l-3.419-3.42c2.787-4.299,8.384-7.105,14.7-7.105
			C134.838,908.666,140.431,911.474,143.21,915.788z"/>
		<path fill="#6B6B6B" d="M153.074,905.926l-3.486,3.484c-2.855-6.835-11.375-11.542-21.095-11.542
			c-9.761,0-18.23,4.685-21.082,11.521l-3.486-3.485c4.145-7.617,13.729-12.698,24.568-12.698
			C139.283,893.206,148.922,898.313,153.074,905.926z"/>
		<path fill="#6B6B6B" d="M164.89,894.109l-3.377,3.375c-5.52-9.069-18.566-15.077-33.021-15.077
			c-14.456,0-27.478,5.996-33.006,15.058l-3.375-3.376c2.996-4.468,7.529-8.29,13.266-11.156c6.791-3.394,14.784-5.188,23.116-5.188
			c8.313,0,16.291,1.786,23.072,5.165C157.329,885.784,161.884,889.621,164.89,894.109z"/>
		<path fill="#6B6B6B" d="M179.208,879.793l-3.354,3.35c-9.033-13.389-27.465-21.98-47.363-21.98
			c-19.937,0-38.303,8.571-47.348,21.96l-3.351-3.351c4.647-6.58,11.354-12.156,19.554-16.225c9.286-4.61,20.056-7.047,31.145-7.047
			c10.993,0,21.684,2.398,30.917,6.933C167.714,867.514,174.517,873.14,179.208,879.793z"/>
	</g>
	<g opacity="0.5">
		<g>
			<g>
				<path fill="#99995C" d="M89.589,952.34c8.882,0,16.08-7.197,16.08-16.078c0-8.884-7.197-16.081-16.08-16.081
					s-16.08,7.197-16.08,16.08C73.509,945.143,80.707,952.34,89.589,952.34z"/>
				<path fill="#99995C" d="M67.881,984.5h43.415c0.926,0,1.801-0.398,2.412-1.087c0.611-0.695,0.894-1.615,0.778-2.528
					l-1.003-8.026c-1.003-8.034-7.86-14.086-15.952-14.086h-15.88c-8.091,0-14.954,6.052-15.951,14.086l-1.003,8.026
					c-0.116,0.913,0.167,1.833,0.778,2.528C66.08,984.102,66.955,984.5,67.881,984.5z"/>
			</g>
		</g>
	</g>
	<g opacity="0.5">
		<g>
			<g>
				<path fill="#E67373" d="M128.499,952.34c8.881,0,16.079-7.197,16.079-16.078c0-8.884-7.198-16.081-16.079-16.081
					c-8.883,0-16.08,7.197-16.08,16.08C112.419,945.143,119.616,952.34,128.499,952.34z"/>
				<path fill="#E67373" d="M106.791,984.5h43.415c0.926,0,1.801-0.398,2.412-1.087c0.611-0.695,0.894-1.615,0.778-2.528
					l-1.004-8.026c-1.003-8.034-7.859-14.086-15.951-14.086h-15.88c-8.091,0-14.955,6.052-15.951,14.086l-1.003,8.026
					c-0.116,0.913,0.167,1.833,0.778,2.528C104.99,984.102,105.865,984.5,106.791,984.5z"/>
			</g>
		</g>
	</g>
	<g opacity="0.5">
		<g>
			<g>
				<path fill="#5C7EE6" d="M167.408,952.34c8.882,0,16.08-7.197,16.08-16.078c0-8.884-7.197-16.081-16.08-16.081
					c-8.882,0-16.079,7.197-16.079,16.08C151.329,945.143,158.526,952.34,167.408,952.34z"/>
				<path fill="#5C7EE6" d="M145.701,984.5h43.416c0.926,0,1.8-0.398,2.412-1.087c0.61-0.695,0.894-1.615,0.778-2.528l-1.004-8.026
					c-1.003-8.034-7.859-14.086-15.952-14.086h-15.88c-8.091,0-14.954,6.052-15.951,14.086l-1.003,8.026
					c-0.116,0.913,0.167,1.833,0.778,2.528C143.9,984.102,144.774,984.5,145.701,984.5z"/>
			</g>
		</g>
	</g>
</g>
<g>
	<g>
		<g>
			<g>
				<path fill="#99995C" d="M211.591,972.682c3.354,0,6.071-2.718,6.071-6.071c0-3.355-2.717-6.072-6.071-6.072
					c-3.355,0-6.072,2.717-6.072,6.071S208.236,972.682,211.591,972.682z"/>
				<path fill="#99995C" d="M203.394,984.826h16.395c0.35,0,0.68-0.149,0.91-0.41c0.231-0.263,0.338-0.609,0.294-0.955l-0.378-3.03
					c-0.379-3.035-2.968-5.319-6.024-5.319h-5.997c-3.056,0-5.648,2.284-6.024,5.319l-0.378,3.03
					c-0.044,0.346,0.063,0.692,0.294,0.955C202.713,984.677,203.043,984.826,203.394,984.826z"/>
			</g>
		</g>
	</g>
	<g>
		<g>
			<g>
				<path fill="#E67373" d="M226.284,972.682c3.354,0,6.072-2.718,6.072-6.071c0-3.355-2.718-6.072-6.072-6.072
					s-6.072,2.717-6.072,6.071S222.93,972.682,226.284,972.682z"/>
				<path fill="#E67373" d="M218.086,984.826h16.396c0.349,0,0.679-0.149,0.911-0.41c0.23-0.263,0.337-0.609,0.293-0.955
					l-0.379-3.03c-0.378-3.035-2.967-5.319-6.023-5.319h-5.997c-3.055,0-5.647,2.284-6.023,5.319l-0.379,3.03
					c-0.044,0.346,0.063,0.692,0.293,0.955C217.406,984.677,217.736,984.826,218.086,984.826z"/>
			</g>
		</g>
	</g>
	<g>
		<g>
			<g>
				<path fill="#5C7EE6" d="M240.978,972.682c3.354,0,6.072-2.718,6.072-6.071c0-3.355-2.719-6.072-6.072-6.072
					s-6.072,2.717-6.072,6.071S237.624,972.682,240.978,972.682z"/>
				<path fill="#5C7EE6" d="M232.78,984.826h16.396c0.349,0,0.679-0.149,0.911-0.41c0.229-0.263,0.336-0.609,0.293-0.955
					l-0.379-3.03c-0.379-3.035-2.969-5.319-6.023-5.319h-5.997c-3.056,0-5.647,2.284-6.024,5.319l-0.379,3.03
					c-0.043,0.346,0.063,0.692,0.293,0.955C232.101,984.677,232.431,984.826,232.78,984.826z"/>
			</g>
		</g>
	</g>
	<g>
		<path fill="#6B6B6B" d="M231.906,958.88l-0.903,0.901l-0.391,0.39c-0.606-1.308-2.324-2.221-4.265-2.221
			c-1.931,0-3.65,0.912-4.26,2.213l-1.292-1.291c1.052-1.623,3.166-2.682,5.551-2.682C228.744,956.19,230.857,957.25,231.906,958.88
			z"/>
		<path fill="#6B6B6B" d="M235.63,955.154l-1.316,1.315c-1.078-2.581-4.295-4.358-7.966-4.358c-3.686,0-6.884,1.77-7.961,4.352
			l-1.316-1.316c1.565-2.877,5.185-4.796,9.278-4.796C230.423,950.351,234.063,952.279,235.63,955.154z"/>
		<path fill="#6B6B6B" d="M240.094,950.692l-1.276,1.273c-2.084-3.424-7.011-5.692-12.47-5.692c-5.459,0-10.376,2.264-12.464,5.686
			l-1.275-1.273c1.132-1.688,2.844-3.131,5.01-4.215c2.565-1.28,5.583-1.959,8.729-1.959c3.139,0,6.152,0.676,8.713,1.95
			C237.237,947.548,238.957,948.998,240.094,950.692z"/>
		<path fill="#6B6B6B" d="M245.5,945.286l-1.267,1.265c-3.411-5.057-10.372-8.301-17.886-8.301c-7.529,0-14.464,3.237-17.88,8.293
			l-1.266-1.266c1.755-2.484,4.288-4.59,7.384-6.127c3.507-1.74,7.574-2.66,11.762-2.66c4.151,0,8.189,0.904,11.675,2.617
			C241.16,940.648,243.729,942.772,245.5,945.286z"/>
	</g>
	<g opacity="0.5">
		<g>
			<g>
				<path fill="#99995C" d="M211.657,972.682c3.354,0,6.072-2.718,6.072-6.071c0-3.355-2.718-6.072-6.072-6.072
					s-6.073,2.717-6.073,6.071S208.303,972.682,211.657,972.682z"/>
				<path fill="#99995C" d="M203.459,984.826h16.395c0.35,0,0.68-0.149,0.912-0.41c0.23-0.263,0.337-0.609,0.293-0.955l-0.379-3.03
					c-0.379-3.035-2.968-5.319-6.024-5.319h-5.997c-3.055,0-5.646,2.284-6.023,5.319l-0.379,3.03
					c-0.043,0.346,0.063,0.692,0.294,0.955C202.779,984.677,203.109,984.826,203.459,984.826z"/>
			</g>
		</g>
	</g>
	<g opacity="0.5">
		<g>
			<g>
				<path fill="#E67373" d="M226.351,972.682c3.354,0,6.072-2.718,6.072-6.071c0-3.355-2.718-6.072-6.072-6.072
					c-3.354,0-6.072,2.717-6.072,6.071S222.996,972.682,226.351,972.682z"/>
				<path fill="#E67373" d="M218.153,984.826h16.395c0.35,0,0.681-0.149,0.911-0.41c0.23-0.263,0.337-0.609,0.293-0.955l-0.379-3.03
					c-0.378-3.035-2.968-5.319-6.023-5.319h-5.997c-3.055,0-5.647,2.284-6.023,5.319l-0.379,3.03
					c-0.044,0.346,0.063,0.692,0.293,0.955C217.473,984.677,217.803,984.826,218.153,984.826z"/>
			</g>
		</g>
	</g>
	<g opacity="0.5">
		<g>
			<g>
				<path fill="#5C7EE6" d="M241.044,972.682c3.354,0,6.072-2.718,6.072-6.071c0-3.355-2.718-6.072-6.072-6.072
					c-3.354,0-6.072,2.717-6.072,6.071S237.69,972.682,241.044,972.682z"/>
				<path fill="#5C7EE6" d="M232.847,984.826h16.396c0.349,0,0.679-0.149,0.91-0.41c0.23-0.263,0.338-0.609,0.294-0.955l-0.379-3.03
					c-0.379-3.035-2.969-5.319-6.023-5.319h-5.997c-3.056,0-5.647,2.284-6.024,5.319l-0.379,3.03
					c-0.043,0.346,0.063,0.692,0.294,0.955C232.167,984.677,232.497,984.826,232.847,984.826z"/>
			</g>
		</g>
	</g>
</g>
<g>
	<g>
		<g>
			<g>
				<path fill="#99995C" d="M221.323,924.471c1.101,0,1.993-0.892,1.993-1.994s-0.893-1.995-1.993-1.995
					c-1.103,0-1.996,0.893-1.996,1.995S220.221,924.471,221.323,924.471z"/>
				<path fill="#99995C" d="M218.63,928.46h5.386c0.114,0,0.223-0.05,0.298-0.134c0.076-0.087,0.111-0.201,0.097-0.314l-0.123-0.995
					c-0.125-0.997-0.975-1.748-1.979-1.748h-1.97c-1.004,0-1.855,0.751-1.979,1.748l-0.125,0.995
					c-0.014,0.113,0.021,0.228,0.097,0.314C218.406,928.41,218.515,928.46,218.63,928.46z"/>
			</g>
		</g>
	</g>
	<g>
		<g>
			<g>
				<path fill="#E67373" d="M226.149,924.471c1.102,0,1.993-0.892,1.993-1.994s-0.892-1.995-1.993-1.995
					c-1.103,0-1.995,0.893-1.995,1.995S225.047,924.471,226.149,924.471z"/>
				<path fill="#E67373" d="M223.456,928.46h5.386c0.115,0,0.224-0.05,0.3-0.134c0.074-0.087,0.11-0.201,0.095-0.314l-0.124-0.995
					c-0.123-0.997-0.975-1.748-1.979-1.748h-1.97c-1.003,0-1.854,0.751-1.979,1.748l-0.124,0.995
					c-0.016,0.113,0.02,0.228,0.096,0.314C223.232,928.41,223.341,928.46,223.456,928.46z"/>
			</g>
		</g>
	</g>
	<g>
		<g>
			<g>
				<path fill="#5C7EE6" d="M230.975,924.471c1.103,0,1.995-0.892,1.995-1.994s-0.893-1.995-1.995-1.995
					c-1.101,0-1.993,0.893-1.993,1.995S229.874,924.471,230.975,924.471z"/>
				<path fill="#5C7EE6" d="M228.282,928.46h5.387c0.114,0,0.223-0.05,0.299-0.134c0.075-0.087,0.11-0.201,0.097-0.314l-0.126-0.995
					c-0.124-0.997-0.975-1.748-1.979-1.748h-1.97c-1.004,0-1.854,0.751-1.979,1.748l-0.124,0.995
					c-0.014,0.113,0.021,0.228,0.097,0.314C228.06,928.41,228.168,928.46,228.282,928.46z"/>
			</g>
		</g>
	</g>
	<g>
		<path fill="#6B6B6B" d="M227.996,919.938l-0.297,0.296l-0.128,0.128c-0.199-0.43-0.764-0.729-1.401-0.729
			c-0.634,0-1.199,0.3-1.399,0.727l-0.424-0.424c0.346-0.532,1.039-0.881,1.823-0.881
			C226.957,919.054,227.65,919.402,227.996,919.938z"/>
		<path fill="#6B6B6B" d="M229.22,918.714l-0.434,0.432c-0.354-0.848-1.411-1.432-2.616-1.432c-1.211,0-2.262,0.582-2.615,1.43
			l-0.433-0.432c0.515-0.946,1.703-1.575,3.048-1.575C227.509,917.137,228.704,917.769,229.22,918.714z"/>
		<path fill="#6B6B6B" d="M230.686,917.248l-0.42,0.418c-0.685-1.124-2.303-1.869-4.096-1.869s-3.409,0.743-4.095,1.867
			l-0.419-0.418c0.372-0.555,0.935-1.028,1.646-1.385c0.843-0.42,1.833-0.644,2.867-0.644c1.03,0,2.021,0.222,2.862,0.641
			C229.747,916.215,230.313,916.691,230.686,917.248z"/>
		<path fill="#6B6B6B" d="M232.461,915.472l-0.416,0.416c-1.12-1.66-3.406-2.727-5.875-2.727c-2.473,0-4.752,1.063-5.873,2.724
			l-0.416-0.416c0.577-0.816,1.409-1.507,2.426-2.012c1.151-0.571,2.487-0.874,3.863-0.874c1.364,0,2.69,0.297,3.835,0.859
			C231.035,913.949,231.879,914.646,232.461,915.472z"/>
	</g>
	<g opacity="0.5">
		<g>
			<g>
				<path fill="#99995C" d="M221.345,924.471c1.101,0,1.994-0.892,1.994-1.994s-0.894-1.995-1.994-1.995
					c-1.103,0-1.995,0.893-1.995,1.995S220.242,924.471,221.345,924.471z"/>
				<path fill="#99995C" d="M218.651,928.46h5.386c0.114,0,0.223-0.05,0.299-0.134c0.076-0.087,0.11-0.201,0.097-0.314l-0.124-0.995
					c-0.125-0.997-0.975-1.748-1.979-1.748h-1.97c-1.004,0-1.855,0.751-1.979,1.748l-0.125,0.995
					c-0.014,0.113,0.021,0.228,0.097,0.314C218.428,928.41,218.537,928.46,218.651,928.46z"/>
			</g>
		</g>
	</g>
	<g opacity="0.5">
		<g>
			<g>
				<path fill="#E67373" d="M226.171,924.471c1.102,0,1.994-0.892,1.994-1.994s-0.893-1.995-1.994-1.995
					c-1.103,0-1.994,0.893-1.994,1.995S225.068,924.471,226.171,924.471z"/>
				<path fill="#E67373" d="M223.479,928.46h5.385c0.115,0,0.224-0.05,0.3-0.134c0.076-0.087,0.11-0.201,0.096-0.314l-0.124-0.995
					c-0.124-0.997-0.975-1.748-1.979-1.748h-1.969c-1.004,0-1.855,0.751-1.979,1.748l-0.124,0.995
					c-0.016,0.113,0.021,0.228,0.095,0.314C223.254,928.41,223.362,928.46,223.479,928.46z"/>
			</g>
		</g>
	</g>
	<g opacity="0.5">
		<g>
			<g>
				<path fill="#5C7EE6" d="M230.997,924.471c1.102,0,1.995-0.892,1.995-1.994s-0.894-1.995-1.995-1.995
					c-1.101,0-1.994,0.893-1.994,1.995S229.896,924.471,230.997,924.471z"/>
				<path fill="#5C7EE6" d="M228.305,928.46h5.386c0.114,0,0.223-0.05,0.299-0.134c0.076-0.087,0.11-0.201,0.097-0.314l-0.125-0.995
					c-0.124-0.997-0.976-1.748-1.979-1.748h-1.97c-1.003,0-1.854,0.751-1.979,1.748l-0.124,0.995
					c-0.015,0.113,0.021,0.228,0.096,0.314C228.081,928.41,228.188,928.46,228.305,928.46z"/>
			</g>
		</g>
	</g>
</g>
</svg>
